<svg xmlns="http://www.w3.org/2000/svg" viewBox="0 0 400 225" width="100%" height="100%">
    <defs>
      <linearGradient id="wallpaperGrad" x1="0%" y1="0%" x2="100%" y2="100%">
        <stop offset="0%" style="stop-color: #a1a1aa; stop-opacity: 1" />
        <stop offset="100%" style="stop-color: #3f3f46; stop-opacity: 1" />
      </linearGradient>
      <linearGradient id="bookCoverGrad" x1="0%" y1="0%" x2="100%" y2="100%">
        <stop offset="0%" style="stop-color: #3f3f46; stop-opacity: 1" />
        <stop offset="100%" style="stop-color: #1c1917; stop-opacity: 1" />
      </linearGradient>
    </defs>
    <rect width="400" height="225" fill="#3f3f46" rx="8"/><path d="M0 45 L400 45 M0 90 L400 90 M0 135 L400 135 M0 180 L400 180 M80 0 L80 225 M160 0 L160 225 M240 0 L240 225 M320 0 L320 225" stroke="white" stroke-width="1" opacity="0.04" />
      <!-- Blender Base -->
      <path d="M150 140 L250 140 L260 200 L140 200 Z" fill="#334155" stroke="#a1a1aa" stroke-width="2"/>
      <!-- Dial button -->
      <circle cx="200" cy="170" r="12" fill="#1e293b" stroke="white" stroke-width="2"/>
      <!-- Glass jar -->
      <path d="M160 50 L240 50 L230 140 L170 140 Z" fill="none" stroke="white" stroke-width="4" opacity="0.6"/>
      <!-- Handle -->
      <path d="M240 70 L265 70 L255 120 L230 120" fill="none" stroke="white" stroke-width="3" opacity="0.6"/>
    
    <text x="24" y="210" fill="white" font-size="10" font-family="sans-serif" font-weight="bold" opacity="0.3">INSTANT POT</text>
  
  </svg>