<svg xmlns="http://www.w3.org/2000/svg" viewBox="0 0 400 225" width="100%" height="100%">
    <defs>
      <linearGradient id="wallpaperGrad" x1="0%" y1="0%" x2="100%" y2="100%">
        <stop offset="0%" style="stop-color: #38bdf8; stop-opacity: 1" />
        <stop offset="100%" style="stop-color: #f8fafc; stop-opacity: 1" />
      </linearGradient>
      <linearGradient id="bookCoverGrad" x1="0%" y1="0%" x2="100%" y2="100%">
        <stop offset="0%" style="stop-color: #f8fafc; stop-opacity: 1" />
        <stop offset="100%" style="stop-color: #1c1917; stop-opacity: 1" />
      </linearGradient>
    </defs>
    <rect width="400" height="225" fill="#f8fafc" rx="8"/><path d="M0 45 L400 45 M0 90 L400 90 M0 135 L400 135 M0 180 L400 180 M80 0 L80 225 M160 0 L160 225 M240 0 L240 225 M320 0 L320 225" stroke="white" stroke-width="1" opacity="0.04" />
      <!-- Air purifier cylinder -->
      <rect x="140" y="45" width="120" height="150" rx="20" fill="#f8fafc" stroke="#38bdf8" stroke-width="3"/>
      <!-- Air intake grill lines -->
      <line x1="160" y1="120" x2="240" y2="120" stroke="#cbd5e1" stroke-width="2"/>
      <line x1="160" y1="135" x2="240" y2="135" stroke="#cbd5e1" stroke-width="2"/>
      <line x1="160" y1="150" x2="240" y2="150" stroke="#cbd5e1" stroke-width="2"/>
      <!-- Top control glow -->
      <ellipse cx="200" cy="45" rx="40" ry="8" fill="#38bdf8" opacity="0.3"/>
    
    <text x="24" y="210" fill="white" font-size="10" font-family="sans-serif" font-weight="bold" opacity="0.3">LEVOIT</text>
  
  </svg>