<svg xmlns="http://www.w3.org/2000/svg" viewBox="0 0 400 225" width="100%" height="100%">
    <defs>
      <linearGradient id="wallpaperGrad" x1="0%" y1="0%" x2="100%" y2="100%">
        <stop offset="0%" style="stop-color: #e4e4e7; stop-opacity: 1" />
        <stop offset="100%" style="stop-color: #18181b; stop-opacity: 1" />
      </linearGradient>
      <linearGradient id="bookCoverGrad" x1="0%" y1="0%" x2="100%" y2="100%">
        <stop offset="0%" style="stop-color: #18181b; stop-opacity: 1" />
        <stop offset="100%" style="stop-color: #1c1917; stop-opacity: 1" />
      </linearGradient>
    </defs>
    <rect width="400" height="225" fill="#18181b" rx="8"/><path d="M0 45 L400 45 M0 90 L400 90 M0 135 L400 135 M0 180 L400 180 M80 0 L80 225 M160 0 L160 225 M240 0 L240 225 M320 0 L320 225" stroke="white" stroke-width="1" opacity="0.04" />
      <!-- Cylindrical cooker chassis -->
      <rect x="130" y="40" width="140" height="150" rx="35" fill="#18181b" stroke="#e4e4e7" stroke-width="3"/>
      <!-- Digital display interface -->
      <ellipse cx="200" cy="70" rx="35" ry="15" fill="#09090b" stroke="#cbd5e1" stroke-width="1"/>
      <circle cx="200" cy="70" r="3" fill="#f43f5e"/>
      <!-- Drawer handle -->
      <rect x="185" y="115" width="30" height="50" rx="6" fill="#3f3f46" stroke="white" stroke-width="1"/>
    
    <text x="24" y="210" fill="white" font-size="10" font-family="sans-serif" font-weight="bold" opacity="0.3">PHILIPS</text>
  
  </svg>