<svg xmlns="http://www.w3.org/2000/svg" viewBox="0 0 400 225" width="100%" height="100%">
    <defs>
      <linearGradient id="wallpaperGrad" x1="0%" y1="0%" x2="100%" y2="100%">
        <stop offset="0%" style="stop-color: #eab308; stop-opacity: 1" />
        <stop offset="100%" style="stop-color: #27272a; stop-opacity: 1" />
      </linearGradient>
      <linearGradient id="bookCoverGrad" x1="0%" y1="0%" x2="100%" y2="100%">
        <stop offset="0%" style="stop-color: #27272a; stop-opacity: 1" />
        <stop offset="100%" style="stop-color: #1c1917; stop-opacity: 1" />
      </linearGradient>
    </defs>
    <rect width="400" height="225" fill="#27272a" rx="8"/><path d="M0 45 L400 45 M0 90 L400 90 M0 135 L400 135 M0 180 L400 180 M80 0 L80 225 M160 0 L160 225 M240 0 L240 225 M320 0 L320 225" stroke="white" stroke-width="1" opacity="0.04" />
      <!-- Cleaner head -->
      <rect x="120" y="170" width="160" height="20" rx="4" fill="#334155" stroke="#eab308" stroke-width="2"/>
      <!-- Stick wand -->
      <line x1="200" y1="70" x2="200" y2="170" stroke="#eab308" stroke-width="6"/>
      <!-- Handheld motor unit -->
      <rect x="180" y="40" width="45" height="40" rx="8" fill="#1e293b" stroke="white" stroke-width="1.5"/>
      <circle cx="210" cy="55" r="10" fill="#a855f7" opacity="0.7"/> <!-- cyclone -->
    
    <text x="24" y="210" fill="white" font-size="10" font-family="sans-serif" font-weight="bold" opacity="0.3">CLEANTECH</text>
  
  </svg>