<svg xmlns="http://www.w3.org/2000/svg" viewBox="0 0 400 225" width="100%" height="100%">
    <defs>
      <linearGradient id="wallpaperGrad" x1="0%" y1="0%" x2="100%" y2="100%">
        <stop offset="0%" style="stop-color: #cbd5e1; stop-opacity: 1" />
        <stop offset="100%" style="stop-color: #f8fafc; stop-opacity: 1" />
      </linearGradient>
      <linearGradient id="bookCoverGrad" x1="0%" y1="0%" x2="100%" y2="100%">
        <stop offset="0%" style="stop-color: #f8fafc; stop-opacity: 1" />
        <stop offset="100%" style="stop-color: #1c1917; stop-opacity: 1" />
      </linearGradient>
    </defs>
    <rect width="400" height="225" fill="#f8fafc" rx="8"/><path d="M0 45 L400 45 M0 90 L400 90 M0 135 L400 135 M0 180 L400 180 M80 0 L80 225 M160 0 L160 225 M240 0 L240 225 M320 0 L320 225" stroke="white" stroke-width="1" opacity="0.04" />
      <!-- Basic t-shirt hanger vector -->
      <path d="M120 70 L200 45 L280 70 L300 100 L260 110 L260 190 L140 190 L140 110 L100 100 Z" fill="none" stroke="white" stroke-width="3" stroke-linejoin="round"/>
    
    <text x="24" y="210" fill="white" font-size="10" font-family="sans-serif" font-weight="bold" opacity="0.3">TRENDWEAR</text>
  
  </svg>