<svg xmlns="http://www.w3.org/2000/svg" viewBox="0 0 400 225" width="100%" height="100%">
    <defs>
      <linearGradient id="wallpaperGrad" x1="0%" y1="0%" x2="100%" y2="100%">
        <stop offset="0%" style="stop-color: #34d399; stop-opacity: 1" />
        <stop offset="100%" style="stop-color: #064e3b; stop-opacity: 1" />
      </linearGradient>
      <linearGradient id="bookCoverGrad" x1="0%" y1="0%" x2="100%" y2="100%">
        <stop offset="0%" style="stop-color: #064e3b; stop-opacity: 1" />
        <stop offset="100%" style="stop-color: #1c1917; stop-opacity: 1" />
      </linearGradient>
    </defs>
    <rect width="400" height="225" fill="#064e3b" rx="8"/><path d="M0 45 L400 45 M0 90 L400 90 M0 135 L400 135 M0 180 L400 180 M80 0 L80 225 M160 0 L160 225 M240 0 L240 225 M320 0 L320 225" stroke="white" stroke-width="1" opacity="0.04" />
      <!-- Styled jacket/hoodie hanger shape -->
      <path d="M160 70 L200 50 L240 70 L260 180 L140 180 Z" fill="none" stroke="white" stroke-width="3" stroke-linejoin="round"/>
      <path d="M140 85 L100 140 L120 150 L140 110" fill="none" stroke="white" stroke-width="3" stroke-linejoin="round"/>
      <path d="M260 85 L300 140 L280 150 L260 110" fill="none" stroke="white" stroke-width="3" stroke-linejoin="round"/>
    
    <text x="24" y="210" fill="white" font-size="10" font-family="sans-serif" font-weight="bold" opacity="0.3">THE NORTH FACE</text>
  
  </svg>