<svg xmlns="http://www.w3.org/2000/svg" viewBox="0 0 400 225" width="100%" height="100%">
    <defs>
      <linearGradient id="wallpaperGrad" x1="0%" y1="0%" x2="100%" y2="100%">
        <stop offset="0%" style="stop-color: #ec4899; stop-opacity: 1" />
        <stop offset="100%" style="stop-color: #0f172a; stop-opacity: 1" />
      </linearGradient>
      <linearGradient id="bookCoverGrad" x1="0%" y1="0%" x2="100%" y2="100%">
        <stop offset="0%" style="stop-color: #0f172a; stop-opacity: 1" />
        <stop offset="100%" style="stop-color: #1c1917; stop-opacity: 1" />
      </linearGradient>
    </defs>
    <rect width="400" height="225" fill="#0f172a" rx="8"/><path d="M0 45 L400 45 M0 90 L400 90 M0 135 L400 135 M0 180 L400 180 M80 0 L80 225 M160 0 L160 225 M240 0 L240 225 M320 0 L320 225" stroke="white" stroke-width="1" opacity="0.04" />
      <!-- Strap -->
      <rect x="180" y="20" width="40" height="185" rx="4" fill="#334155" stroke="#475569" stroke-width="1"/>
      <!-- Watch body -->
      <rect x="155" y="65" width="90" height="95" rx="20" fill="#0f172a" stroke="#ec4899" stroke-width="4"/>
      <!-- Watch Screen UI -->
      <rect x="163" y="73" width="74" height="79" rx="14" fill="url(#wallpaperGrad)"/>
      <circle cx="200" cy="112" r="24" fill="none" stroke="white" stroke-width="1.5" opacity="0.3"/>
      <text x="200" y="117" fill="white" font-size="12" font-family="sans-serif" text-anchor="middle" font-weight="bold">10:09</text>
    
    <text x="24" y="210" fill="white" font-size="10" font-family="sans-serif" font-weight="bold" opacity="0.3">FITBIT</text>
  
  </svg>