<svg xmlns="http://www.w3.org/2000/svg" viewBox="0 0 400 225" width="100%" height="100%">
    <defs>
      <linearGradient id="wallpaperGrad" x1="0%" y1="0%" x2="100%" y2="100%">
        <stop offset="0%" style="stop-color: #fb923c; stop-opacity: 1" />
        <stop offset="100%" style="stop-color: #451a03; stop-opacity: 1" />
      </linearGradient>
      <linearGradient id="bookCoverGrad" x1="0%" y1="0%" x2="100%" y2="100%">
        <stop offset="0%" style="stop-color: #451a03; stop-opacity: 1" />
        <stop offset="100%" style="stop-color: #1c1917; stop-opacity: 1" />
      </linearGradient>
    </defs>
    <rect width="400" height="225" fill="#451a03" rx="8"/><path d="M0 45 L400 45 M0 90 L400 90 M0 135 L400 135 M0 180 L400 180 M80 0 L80 225 M160 0 L160 225 M240 0 L240 225 M320 0 L320 225" stroke="white" stroke-width="1" opacity="0.04" />
      <!-- Textured dumbbell plate weight layout -->
      <rect x="100" y="105" width="200" height="15" rx="4" fill="#cbd5e1"/>
      <rect x="80" y="75" width="20" height="75" rx="3" fill="#1f2937" stroke="white" stroke-width="1.5"/>
      <rect x="300" y="75" width="20" height="75" rx="3" fill="#1f2937" stroke="white" stroke-width="1.5"/>
    
    <text x="24" y="210" fill="white" font-size="10" font-family="sans-serif" font-weight="bold" opacity="0.3">WILSON</text>
  
  </svg>