<svg xmlns="http://www.w3.org/2000/svg" viewBox="0 0 400 225" width="100%" height="100%">
    <defs>
      <linearGradient id="wallpaperGrad" x1="0%" y1="0%" x2="100%" y2="100%">
        <stop offset="0%" style="stop-color: #0284c7; stop-opacity: 1" />
        <stop offset="100%" style="stop-color: #0f172a; stop-opacity: 1" />
      </linearGradient>
      <linearGradient id="bookCoverGrad" x1="0%" y1="0%" x2="100%" y2="100%">
        <stop offset="0%" style="stop-color: #0f172a; stop-opacity: 1" />
        <stop offset="100%" style="stop-color: #1c1917; stop-opacity: 1" />
      </linearGradient>
    </defs>
    <rect width="400" height="225" fill="#0f172a" rx="8"/><path d="M0 45 L400 45 M0 90 L400 90 M0 135 L400 135 M0 180 L400 180 M80 0 L80 225 M160 0 L160 225 M240 0 L240 225 M320 0 L320 225" stroke="white" stroke-width="1" opacity="0.04" />
      <!-- Screen bezel -->
      <rect x="100" y="40" width="200" height="120" rx="6" fill="#1e293b" stroke="#0284c7" stroke-width="3"/>
      <!-- Screen display -->
      <rect x="108" y="48" width="184" height="104" rx="2" fill="url(#wallpaperGrad)"/>
      <!-- Keyboard deck -->
      <path d="M70 160 L330 160 L340 185 C340 190 330 195 320 195 L80 195 C70 195 60 190 60 185 Z" fill="#475569" stroke="#cbd5e1" stroke-width="1"/>
      <!-- Trackpad -->
      <rect x="175" y="175" width="50" height="15" rx="2" fill="#334155"/>
    
    <text x="24" y="210" fill="white" font-size="10" font-family="sans-serif" font-weight="bold" opacity="0.3">DELL</text>
  
  </svg>