<svg xmlns="http://www.w3.org/2000/svg" viewBox="0 0 400 225" width="100%" height="100%">
    <defs>
      <linearGradient id="wallpaperGrad" x1="0%" y1="0%" x2="100%" y2="100%">
        <stop offset="0%" style="stop-color: #3b82f6; stop-opacity: 1" />
        <stop offset="100%" style="stop-color: #1e3a8a; stop-opacity: 1" />
      </linearGradient>
      <linearGradient id="bookCoverGrad" x1="0%" y1="0%" x2="100%" y2="100%">
        <stop offset="0%" style="stop-color: #1e3a8a; stop-opacity: 1" />
        <stop offset="100%" style="stop-color: #1c1917; stop-opacity: 1" />
      </linearGradient>
    </defs>
    <rect width="400" height="225" fill="#1e3a8a" rx="8"/><path d="M0 45 L400 45 M0 90 L400 90 M0 135 L400 135 M0 180 L400 180 M80 0 L80 225 M160 0 L160 225 M240 0 L240 225 M320 0 L320 225" stroke="white" stroke-width="1" opacity="0.04" />
      <!-- Phone body -->
      <rect x="150" y="30" width="100" height="170" rx="14" fill="#0f172a" stroke="#3b82f6" stroke-width="3"/>
      <!-- Screen with colorful wallpaper -->
      <rect x="156" y="36" width="88" height="158" rx="8" fill="url(#wallpaperGrad)"/>
      <!-- Camera punch hole -->
      <circle cx="200" cy="46" r="4" fill="#020617"/>
      <!-- Side lock button -->
      <rect x="251" y="70" width="2" height="15" fill="#475569"/>
    
    <text x="24" y="210" fill="white" font-size="10" font-family="sans-serif" font-weight="bold" opacity="0.3">SAMSUNG</text>
  
  </svg>