<svg xmlns="http://www.w3.org/2000/svg" viewBox="0 0 400 225" width="100%" height="100%">
    <defs>
      <linearGradient id="wallpaperGrad" x1="0%" y1="0%" x2="100%" y2="100%">
        <stop offset="0%" style="stop-color: #38bdf8; stop-opacity: 1" />
        <stop offset="100%" style="stop-color: #020617; stop-opacity: 1" />
      </linearGradient>
      <linearGradient id="bookCoverGrad" x1="0%" y1="0%" x2="100%" y2="100%">
        <stop offset="0%" style="stop-color: #020617; stop-opacity: 1" />
        <stop offset="100%" style="stop-color: #1c1917; stop-opacity: 1" />
      </linearGradient>
    </defs>
    <rect width="400" height="225" fill="#020617" rx="8"/><path d="M0 45 L400 45 M0 90 L400 90 M0 135 L400 135 M0 180 L400 180 M80 0 L80 225 M160 0 L160 225 M240 0 L240 225 M320 0 L320 225" stroke="white" stroke-width="1" opacity="0.04" />
      <!-- Widescreen curved frame -->
      <rect x="60" y="30" width="280" height="140" rx="6" fill="#0f172a" stroke="#38bdf8" stroke-width="3"/>
      <!-- Widescreen active display -->
      <rect x="66" y="36" width="268" height="128" rx="2" fill="url(#wallpaperGrad)"/>
      <!-- Stand base -->
      <path d="M185 170 L215 170 L225 200 L175 200 Z" fill="#475569"/>
      <path d="M140 200 L260 200 L270 210 L130 210 Z" fill="#1e293b"/>
    
    <text x="24" y="210" fill="white" font-size="10" font-family="sans-serif" font-weight="bold" opacity="0.3">SAMSUNG</text>
  
  </svg>