<svg xmlns="http://www.w3.org/2000/svg" viewBox="0 0 400 225" width="100%" height="100%">
    <defs>
      <linearGradient id="wallpaperGrad" x1="0%" y1="0%" x2="100%" y2="100%">
        <stop offset="0%" style="stop-color: #3b82f6; stop-opacity: 1" />
        <stop offset="100%" style="stop-color: #0f172a; stop-opacity: 1" />
      </linearGradient>
      <linearGradient id="bookCoverGrad" x1="0%" y1="0%" x2="100%" y2="100%">
        <stop offset="0%" style="stop-color: #0f172a; stop-opacity: 1" />
        <stop offset="100%" style="stop-color: #1c1917; stop-opacity: 1" />
      </linearGradient>
    </defs>
    <rect width="400" height="225" fill="#0f172a" rx="8"/><path d="M0 45 L400 45 M0 90 L400 90 M0 135 L400 135 M0 180 L400 180 M80 0 L80 225 M160 0 L160 225 M240 0 L240 225 M320 0 L320 225" stroke="white" stroke-width="1" opacity="0.04" />
      <!-- Quadcopter silhouette -->
      <line x1="130" y1="80" x2="270" y2="150" stroke="white" stroke-width="4"/>
      <line x1="270" y1="80" x2="130" y2="150" stroke="white" stroke-width="4"/>
      <circle cx="200" cy="115" r="16" fill="none" stroke="white" stroke-width="3"/>
      <circle cx="130" cy="80" r="12" fill="none" stroke="#3b82f6" stroke-width="2"/>
      <circle cx="270" cy="80" r="12" fill="none" stroke="#3b82f6" stroke-width="2"/>
    
    <text x="24" y="210" fill="white" font-size="10" font-family="sans-serif" font-weight="bold" opacity="0.3">FUNMAKER</text>
  
  </svg>