<svg xmlns="http://www.w3.org/2000/svg" viewBox="0 0 400 225" width="100%" height="100%">
    <defs>
      <linearGradient id="wallpaperGrad" x1="0%" y1="0%" x2="100%" y2="100%">
        <stop offset="0%" style="stop-color: #ea580c; stop-opacity: 1" />
        <stop offset="100%" style="stop-color: #7c2d12; stop-opacity: 1" />
      </linearGradient>
      <linearGradient id="bookCoverGrad" x1="0%" y1="0%" x2="100%" y2="100%">
        <stop offset="0%" style="stop-color: #7c2d12; stop-opacity: 1" />
        <stop offset="100%" style="stop-color: #1c1917; stop-opacity: 1" />
      </linearGradient>
    </defs>
    <rect width="400" height="225" fill="#7c2d12" rx="8"/><path d="M0 45 L400 45 M0 90 L400 90 M0 135 L400 135 M0 180 L400 180 M80 0 L80 225 M160 0 L160 225 M240 0 L240 225 M320 0 L320 225" stroke="white" stroke-width="1" opacity="0.04" />
      <!-- Boardgame stylized grid cover box -->
      <rect x="110" y="50" width="180" height="130" rx="8" fill="none" stroke="white" stroke-width="3"/>
      <line x1="200" y1="50" x2="200" y2="180" stroke="white" stroke-width="2" opacity="0.4"/>
      <line x1="110" y1="115" x2="290" y2="115" stroke="white" stroke-width="2" opacity="0.4"/>
      <circle cx="200" cy="115" r="15" fill="none" stroke="white" stroke-width="2" opacity="0.6"/>
    
    <text x="24" y="210" fill="white" font-size="10" font-family="sans-serif" font-weight="bold" opacity="0.3">CATAN</text>
  
  </svg>