<svg xmlns="http://www.w3.org/2000/svg" viewBox="0 0 400 225" width="100%" height="100%">
    <defs>
      <linearGradient id="wallpaperGrad" x1="0%" y1="0%" x2="100%" y2="100%">
        <stop offset="0%" style="stop-color: #ef4444; stop-opacity: 1" />
        <stop offset="100%" style="stop-color: #7f1d1d; stop-opacity: 1" />
      </linearGradient>
      <linearGradient id="bookCoverGrad" x1="0%" y1="0%" x2="100%" y2="100%">
        <stop offset="0%" style="stop-color: #7f1d1d; stop-opacity: 1" />
        <stop offset="100%" style="stop-color: #1c1917; stop-opacity: 1" />
      </linearGradient>
    </defs>
    <rect width="400" height="225" fill="#7f1d1d" rx="8"/><path d="M0 45 L400 45 M0 90 L400 90 M0 135 L400 135 M0 180 L400 180 M80 0 L80 225 M160 0 L160 225 M240 0 L240 225 M320 0 L320 225" stroke="white" stroke-width="1" opacity="0.04" />
      <!-- Toy box / LEGO blocks silhouette -->
      <rect x="110" y="50" width="180" height="130" rx="6" fill="none" stroke="white" stroke-width="3"/>
      <circle cx="160" cy="90" r="10" fill="white" opacity="0.3"/>
      <circle cx="240" cy="90" r="10" fill="white" opacity="0.3"/>
      <circle cx="160" cy="140" r="10" fill="white" opacity="0.3"/>
      <circle cx="240" cy="140" r="10" fill="white" opacity="0.3"/>
    
    <text x="24" y="210" fill="white" font-size="10" font-family="sans-serif" font-weight="bold" opacity="0.3">LEGO</text>
  
  </svg>