<svg xmlns="http://www.w3.org/2000/svg" viewBox="0 0 400 225" width="100%" height="100%">
    <defs>
      <linearGradient id="wallpaperGrad" x1="0%" y1="0%" x2="100%" y2="100%">
        <stop offset="0%" style="stop-color: #ec4899; stop-opacity: 1" />
        <stop offset="100%" style="stop-color: #111827; stop-opacity: 1" />
      </linearGradient>
      <linearGradient id="bookCoverGrad" x1="0%" y1="0%" x2="100%" y2="100%">
        <stop offset="0%" style="stop-color: #111827; stop-opacity: 1" />
        <stop offset="100%" style="stop-color: #1c1917; stop-opacity: 1" />
      </linearGradient>
    </defs>
    <rect width="400" height="225" fill="#111827" rx="8"/><path d="M0 45 L400 45 M0 90 L400 90 M0 135 L400 135 M0 180 L400 180 M80 0 L80 225 M160 0 L160 225 M240 0 L240 225 M320 0 L320 225" stroke="white" stroke-width="1" opacity="0.04" />
      <!-- Headband arch -->
      <path d="M125 140 A 75 75 0 0 1 275 140" fill="none" stroke="#ec4899" stroke-width="10" stroke-linecap="round" opacity="0.6"/>
      <!-- Earcups -->
      <rect x="95" y="115" width="35" height="55" rx="14" fill="#0f172a" stroke="white" stroke-width="2"/>
      <rect x="270" y="115" width="35" height="55" rx="14" fill="#0f172a" stroke="white" stroke-width="2"/>
      <line x1="95" y1="140" x2="105" y2="140" stroke="white" stroke-width="2"/>
      <line x1="295" y1="140" x2="305" y2="140" stroke="white" stroke-width="2"/>
    
    <text x="24" y="210" fill="white" font-size="10" font-family="sans-serif" font-weight="bold" opacity="0.3">SOUNDSTORM</text>
  
  </svg>