<svg xmlns="http://www.w3.org/2000/svg" viewBox="0 0 400 225" width="100%" height="100%">
    <defs>
      <linearGradient id="wallpaperGrad" x1="0%" y1="0%" x2="100%" y2="100%">
        <stop offset="0%" style="stop-color: #ef4444; stop-opacity: 1" />
        <stop offset="100%" style="stop-color: #1e1b4b; stop-opacity: 1" />
      </linearGradient>
      <linearGradient id="bookCoverGrad" x1="0%" y1="0%" x2="100%" y2="100%">
        <stop offset="0%" style="stop-color: #1e1b4b; stop-opacity: 1" />
        <stop offset="100%" style="stop-color: #1c1917; stop-opacity: 1" />
      </linearGradient>
    </defs>
    <rect width="400" height="225" fill="#1e1b4b" rx="8"/><path d="M0 45 L400 45 M0 90 L400 90 M0 135 L400 135 M0 180 L400 180 M80 0 L80 225 M160 0 L160 225 M240 0 L240 225 M320 0 L320 225" stroke="white" stroke-width="1" opacity="0.04" />
      <!-- Handheld console base screen -->
      <rect x="110" y="60" width="180" height="110" rx="6" fill="#020617" stroke="#334155" stroke-width="3"/>
      <rect x="120" y="68" width="160" height="94" rx="2" fill="url(#wallpaperGrad)"/>
      <!-- Left Red JoyCon -->
      <path d="M80 60 C80 60 110 60 110 60 L110 170 L80 170 C70 170 70 60 80 60 Z" fill="#f43f5e" stroke="#e11d48" stroke-width="1.5"/>
      <circle cx="95" cy="85" r="8" fill="#1e293b"/> <!-- stick -->
      <!-- Right Blue JoyCon -->
      <path d="M290 60 C290 60 320 60 320 60 C330 60 330 170 320 170 L290 170 Z" fill="#06b6d4" stroke="#0891b2" stroke-width="1.5"/>
      <circle cx="305" cy="145" r="8" fill="#1e293b"/> <!-- stick -->
    
    <text x="24" y="210" fill="white" font-size="10" font-family="sans-serif" font-weight="bold" opacity="0.3">NINTENDO</text>
  
  </svg>