<svg xmlns="http://www.w3.org/2000/svg" viewBox="0 0 400 225" width="100%" height="100%">
    <defs>
      <linearGradient id="wallpaperGrad" x1="0%" y1="0%" x2="100%" y2="100%">
        <stop offset="0%" style="stop-color: #ef4444; stop-opacity: 1" />
        <stop offset="100%" style="stop-color: #0c0a09; stop-opacity: 1" />
      </linearGradient>
      <linearGradient id="bookCoverGrad" x1="0%" y1="0%" x2="100%" y2="100%">
        <stop offset="0%" style="stop-color: #0c0a09; stop-opacity: 1" />
        <stop offset="100%" style="stop-color: #1c1917; stop-opacity: 1" />
      </linearGradient>
    </defs>
    <rect width="400" height="225" fill="#0c0a09" rx="8"/><path d="M0 45 L400 45 M0 90 L400 90 M0 135 L400 135 M0 180 L400 180 M80 0 L80 225 M160 0 L160 225 M240 0 L240 225 M320 0 L320 225" stroke="white" stroke-width="1" opacity="0.04" />
      <!-- Keyboard frame -->
      <rect x="50" y="85" width="300" height="120" rx="8" fill="#1c1917" stroke="#ef4444" stroke-width="3"/>
      <!-- Colorful 3D keycaps grid -->
      <rect x="62" y="98" width="40" height="20" rx="2" fill="#ef4444" opacity="0.7"/>
      <rect x="107" y="98" width="40" height="20" rx="2" fill="#06b6d4" opacity="0.7"/>
      <rect x="152" y="98" width="40" height="20" rx="2" fill="#10b981" opacity="0.7"/>
      <rect x="197" y="98" width="80" height="20" rx="2" fill="#3b82f6" opacity="0.7"/>
      <rect x="282" y="98" width="40" height="20" rx="2" fill="#ec4899" opacity="0.7"/>
      <rect x="62" y="123" width="30" height="20" rx="2" fill="#eab308" opacity="0.7"/>
      <rect x="97" y="123" width="170" height="20" rx="2" fill="#ef4444" opacity="0.8"/> <!-- Spacebar -->
      <rect x="272" y="123" width="40" height="20" rx="2" fill="#10b981" opacity="0.7"/>
    
    <text x="24" y="210" fill="white" font-size="10" font-family="sans-serif" font-weight="bold" opacity="0.3">GEARSET</text>
  
  </svg>