<svg xmlns="http://www.w3.org/2000/svg" viewBox="0 0 400 225" width="100%" height="100%">
    <defs>
      <linearGradient id="wallpaperGrad" x1="0%" y1="0%" x2="100%" y2="100%">
        <stop offset="0%" style="stop-color: #22c55e; stop-opacity: 1" />
        <stop offset="100%" style="stop-color: #0f172a; stop-opacity: 1" />
      </linearGradient>
      <linearGradient id="bookCoverGrad" x1="0%" y1="0%" x2="100%" y2="100%">
        <stop offset="0%" style="stop-color: #0f172a; stop-opacity: 1" />
        <stop offset="100%" style="stop-color: #1c1917; stop-opacity: 1" />
      </linearGradient>
    </defs>
    <rect width="400" height="225" fill="#0f172a" rx="8"/><path d="M0 45 L400 45 M0 90 L400 90 M0 135 L400 135 M0 180 L400 180 M80 0 L80 225 M160 0 L160 225 M240 0 L240 225 M320 0 L320 225" stroke="white" stroke-width="1" opacity="0.04" />
      <!-- Mouse contours -->
      <path d="M160 150 C160 100 175 80 200 80 C225 80 240 100 240 150 C240 190 225 205 200 205 C175 205 160 190 160 150 Z" fill="#0f172a" stroke="#22c55e" stroke-width="3"/>
      <!-- Clicks separation -->
      <path d="M200 80 L200 130" stroke="#334155" stroke-width="2"/>
      <!-- Scroll wheel glowing -->
      <rect x="196" y="92" width="8" height="22" rx="3" fill="#22c55e" opacity="0.9"/>
    
    <text x="24" y="210" fill="white" font-size="10" font-family="sans-serif" font-weight="bold" opacity="0.3">GEARSET</text>
  
  </svg>